<?xml version="1.0" encoding="UTF-8" standalone="no"?>
<svg
   viewBox="0 0 64 64"
   enable-background="new 0 0 64 64"
   version="1.1"
   id="svg1"
   sodipodi:docname="green_check2.svg"
   inkscape:version="1.3.2 (091e20e, 2023-11-25, custom)"
   xmlns:inkscape="http://www.inkscape.org/namespaces/inkscape"
   xmlns:sodipodi="http://sodipodi.sourceforge.net/DTD/sodipodi-0.dtd"
   xmlns="http://www.w3.org/2000/svg"
   xmlns:svg="http://www.w3.org/2000/svg">
  <defs
     id="defs1" />
  <sodipodi:namedview
     id="namedview1"
     pagecolor="#ffffff"
     bordercolor="#000000"
     borderopacity="0.25"
     inkscape:showpageshadow="2"
     inkscape:pageopacity="0.0"
     inkscape:pagecheckerboard="0"
     inkscape:deskcolor="#d1d1d1"
     showgrid="false"
     inkscape:zoom="12.140625"
     inkscape:cx="31.958816"
     inkscape:cy="32"
     inkscape:window-width="1920"
     inkscape:window-height="991"
     inkscape:window-x="-9"
     inkscape:window-y="-9"
     inkscape:window-maximized="1"
     inkscape:current-layer="svg1" />
  <circle
     cx="32"
     cy="32"
     r="30"
     fill="#fff"
     id="circle1"
     style="stroke:none" />
  <path
     d="M32,2C15.431,2,2,15.432,2,32c0,16.568,13.432,30,30,30c16.568,0,30-13.432,30-30C62,15.432,48.568,2,32,2z M25.025,50  l-0.02-0.02L24.988,50L11,35.6l7.029-7.164l6.977,7.184l21-21.619L53,21.199L25.025,50z"
     fill="#43a047"
     id="path1" />
  <path
     style="fill:none;fill-opacity:1;stroke:none;stroke-width:0.562903;stroke-linecap:square;stroke-opacity:1;paint-order:markers fill stroke"
     d="m 18.079794,42.820543 c -3.805405,-3.920124 -6.930203,-7.158308 -6.943994,-7.195965 -0.03044,-0.08311 6.832477,-7.094636 6.914549,-7.06428 0.03186,0.01178 1.58783,1.596716 3.457706,3.52207 1.869877,1.925354 3.445324,3.500644 3.500994,3.500644 0.05567,0 4.800254,-4.837066 10.54352,-10.749035 5.743266,-5.911969 10.462568,-10.734623 10.487338,-10.717009 0.142818,0.101561 6.840402,7.03482 6.840402,7.081103 0,0.03085 -1.566023,1.668374 -3.480052,3.638944 -1.914028,1.970569 -7.849694,8.085681 -13.19037,13.589136 -5.340676,5.503455 -10.048011,10.347293 -10.460746,10.764085 l -0.750428,0.757804 z"
     id="path2" />
  <path
     style="fill:none;fill-opacity:1;stroke:#000000;stroke-width:0.562903;stroke-linecap:square;stroke-opacity:1;paint-order:markers fill stroke"
     d="m 18.079794,42.820543 c -3.805405,-3.920124 -6.930203,-7.158308 -6.943994,-7.195965 -0.03044,-0.08311 6.832477,-7.094636 6.914549,-7.06428 0.03186,0.01178 1.58783,1.596716 3.457706,3.52207 1.869877,1.925354 3.445324,3.500644 3.500994,3.500644 0.05567,0 4.800254,-4.837066 10.54352,-10.749035 5.743266,-5.911969 10.462568,-10.734623 10.487338,-10.717009 0.142818,0.101561 6.840402,7.03482 6.840402,7.081103 0,0.03085 -1.566023,1.668374 -3.480052,3.638944 -1.914028,1.970569 -7.849694,8.085681 -13.19037,13.589136 -5.340676,5.503455 -10.048011,10.347293 -10.460746,10.764085 l -0.750428,0.757804 z"
     id="path3" />
  <path
     style="fill:none;fill-opacity:1;stroke:#000000;stroke-width:0.562903;stroke-linecap:square;stroke-opacity:1;paint-order:markers fill stroke"
     d="m 19.057829,43.346203 c -3.261318,-3.363706 -6.274933,-6.4774 -6.696921,-6.919319 l -0.767252,-0.803488 0.353676,-0.390849 c 0.906116,-1.001352 6.03883,-6.201477 6.100288,-6.180406 0.03817,0.01309 1.450981,1.438903 3.139587,3.168483 3.150706,3.227156 3.598953,3.650676 3.863829,3.650676 0.182117,0 2.708238,-2.549437 13.241998,-13.364221 4.224993,-4.33771 7.708924,-7.886744 7.742068,-7.886744 0.05804,0 1.918082,1.905619 4.957828,5.079319 l 1.448529,1.512362 -1.530897,1.581928 c -6.374473,6.586963 -25.882443,26.668089 -25.906926,26.668089 -0.0089,0 -2.684488,-2.752123 -5.945807,-6.11583 z"
     id="path4" />
  <path
     style="fill:none;fill-opacity:1;stroke:#000000;stroke-width:0.562903;stroke-linecap:square;stroke-opacity:1;paint-order:markers fill stroke"
     d="m 22.157014,46.198002 c -1.517632,-1.560721 -2.799974,-2.910671 -2.849649,-2.999888 -0.04968,-0.08922 -1.689829,-1.817106 -3.644787,-3.839752 -1.954959,-2.022647 -3.55447,-3.712157 -3.55447,-3.754467 0,-0.07043 3.973083,-4.184868 5.349049,-5.539358 l 0.585528,-0.576389 3.095044,3.151771 c 1.74346,1.775415 3.253867,3.244848 3.458739,3.364911 0.267503,0.156767 0.423256,0.198235 0.58889,0.156787 0.276682,-0.06924 2.296931,-2.098635 12.85811,-12.916335 4.365864,-4.471906 7.966252,-8.130739 8.000863,-8.130739 0.07776,0 5.888745,6.013513 5.888745,6.093979 0,0.07071 -26.956811,27.857929 -27.0026,27.834414 -0.0078,-0.004 -1.25583,-1.284212 -2.773462,-2.844934 z"
     id="path5" />
  <path
     style="fill:none;fill-opacity:1;stroke:#000000;stroke-width:0.562903;stroke-linecap:square;stroke-opacity:1;paint-order:markers fill stroke"
     d="M 22.312165,45.866409 C 20.883548,44.378365 19.55069,42.978563 19.350261,42.755739 19.149831,42.532913 17.54955,40.848792 15.79408,39.013246 14.03861,37.1777 12.602317,35.642851 12.602317,35.60247 c 0,-0.08033 2.855542,-3.057767 4.440659,-4.630225 l 0.994514,-0.986571 3.192323,3.182142 c 3.348572,3.337893 3.437495,3.410809 4.02304,3.298875 0.371042,-0.07093 1.435315,-1.140421 19.331026,-19.42581 l 1.464189,-1.49607 2.039568,2.111764 c 1.121764,1.161471 2.361408,2.445356 2.754767,2.853078 l 0.715197,0.741312 -1.138845,1.111969 c -0.626365,0.611583 -3.358871,3.40995 -6.072237,6.218593 C 37.47755,35.691695 28.71463,44.717472 26.645375,46.813642 l -1.735722,1.758301 z"
     id="path6" />
  <path
     style="fill:none;fill-opacity:1;stroke:#000000;stroke-width:0.562903;stroke-linecap:square;stroke-opacity:1;paint-order:markers fill stroke"
     d="m 23.094218,46.191931 c -1.767321,-1.835359 -4.442201,-4.646235 -8.202472,-8.619505 l -1.870159,-1.976093 1.308497,-1.365734 c 0.719674,-0.751154 1.848602,-1.902805 2.50873,-2.559223 l 1.200232,-1.19349 1.997208,1.979115 c 2.925709,2.899204 4.030098,3.952199 4.348994,4.146604 0.438737,0.267463 0.957286,0.23484 1.404195,-0.08834 0.469663,-0.339633 3.2385,-3.124501 12.611584,-12.684603 l 7.646124,-7.798682 2.517154,2.59782 2.517153,2.59782 -1.966277,1.988507 C 48.03373,24.309806 43.704014,28.762935 39.49359,33.11197 32.203507,40.64205 26.187239,46.818328 25.308278,47.674557 l -0.405772,0.395277 z"
     id="path7" />
  <path
     style="fill:none;fill-opacity:1;stroke:#000000;stroke-width:0.562903;stroke-linecap:square;stroke-opacity:1;paint-order:markers fill stroke"
     d="M 29.981982,61.890344 C 17.847514,61.089217 7.2899987,52.855639 3.5122821,41.247197 1.5809618,35.312495 1.5639257,28.7687 3.4645138,22.898753 5.2964545,17.240822 8.674251,12.330779 13.278708,8.6326106 20.592241,2.758592 30.35062,0.64478369 39.398306,2.9747219 50.950558,5.9496296 59.655554,15.458006 61.559779,27.181467 c 0.313805,1.931962 0.410041,3.449261 0.35474,5.593033 -0.08101,3.140499 -0.498674,5.62068 -1.426801,8.472697 -3.52587,10.834551 -12.965062,18.789475 -24.204578,20.398526 -2.144825,0.307053 -4.166642,0.385544 -6.301158,0.244621 z M 26.792351,48.576577 c 2.45627,-2.502315 22.025296,-22.65909 25.039886,-25.79195 0.757649,-0.787374 1.37708,-1.473088 1.376512,-1.52381 -0.0023,-0.20559 -0.588917,-0.839947 -4.598305,-4.972529 -1.285595,-1.325096 -2.37208,-2.409266 -2.41441,-2.409266 -0.04233,0 -0.255283,0.166795 -0.473227,0.370656 -0.459707,0.430003 -0.643003,0.49383 -0.295675,0.10296 0.678609,-0.763681 -4.689405,4.678689 -10.053789,10.193051 -3.349345,3.442985 -7.055504,7.237414 -8.235909,8.432064 l -2.146191,2.172091 -3.368279,-3.428204 c -2.800882,-2.850712 -3.40603,-3.428204 -3.592386,-3.428204 -0.185758,0 -0.741656,0.525036 -3.248562,3.068211 -3.535516,3.586667 -4.012147,4.112716 -3.927618,4.334851 0.03266,0.08581 0.874817,1.008436 1.871471,2.050273 3.486495,3.644555 12.191006,12.609147 12.249209,12.615201 0.0323,0.0034 0.850077,-0.800067 1.817273,-1.785395 z"
     id="path22" />
  <path
     style="fill:none;fill-opacity:1;stroke:#000000;stroke-width:0.562903;stroke-linecap:square;stroke-opacity:1;paint-order:markers fill stroke"
     d="M 30.146718,62.143555 C 17.845644,61.348297 7.1856265,53.10148 3.3201636,41.389961 2.694745,39.495078 2.1984576,37.175347 1.9630909,35.046776 1.8281355,33.826287 1.8265038,30.083533 1.9604162,28.911197 2.3982155,25.078483 3.3609989,21.834117 5.0647009,18.45045 6.5973473,15.406511 8.3142615,13.044871 10.784612,10.582631 15.733107,5.6503816 22.085336,2.6786036 29.281853,1.9290239 c 1.198034,-0.1247856 4.279279,-0.1241281 5.518662,0.00118 11.474121,1.160072 21.175216,8.5123711 25.361853,19.2213251 0.885241,2.264348 1.525331,4.887716 1.873228,7.677302 0.131685,1.055902 0.129739,4.873912 -0.0031,6.177606 -0.286167,2.807465 -0.928867,5.43758 -1.992633,8.15444 -0.456395,1.165634 -1.704811,3.637733 -2.370977,4.694981 -4.461006,7.079907 -11.289096,11.896877 -19.36768,13.663198 -2.481151,0.542484 -5.658808,0.785842 -8.15444,0.624501 z m 3.706564,-0.494472 c 5.316026,-0.374621 10.313304,-2.052986 14.537966,-4.88266 7.475368,-5.006991 12.2029,-12.814242 13.151411,-21.718804 0.157497,-1.478581 0.13253,-5.333323 -0.04295,-6.630631 C 60.496994,21.00391 57.114575,14.563697 51.727156,9.8097932 42.915139,2.0339969 30.688325,0.12866792 19.954115,4.8585368 14.513189,7.2559999 9.7301523,11.455211 6.6303473,16.555985 c -0.6833677,1.124491 -1.7882707,3.340249 -2.2386916,4.489442 -1.5124255,3.858768 -2.174798,7.632649 -2.0600306,11.73707 0.066503,2.378337 0.276746,4.001826 0.8051395,6.217255 0.8400205,3.522008 2.5066683,7.180861 4.6248766,10.153164 2.4086988,3.379923 5.5220658,6.251765 9.0939448,8.388466 5.065654,3.030278 11.211369,4.515465 16.997696,4.107701 z"
     id="path23" />
  <path
     style="fill:none;fill-opacity:1;stroke:#000000;stroke-width:0.562903;stroke-linecap:square;stroke-opacity:1;paint-order:markers fill stroke"
     d="M 29.075933,62.30542 C 23.095916,61.652654 17.742584,59.439795 12.90685,55.621752 11.718752,54.683691 9.0126729,51.936301 8.070681,50.711752 4.6420212,46.254646 2.759015,41.820002 1.8391851,36.036036 1.6181206,34.645964 1.6179893,29.273081 1.8389858,27.881596 2.4679393,23.921445 3.5936083,20.600914 5.433974,17.276996 8.1395914,12.390332 12.209594,8.2872506 17.102773,5.5133601 c 3.62073,-2.0525532 7.923883,-3.4000582 12.208399,-3.8229829 1.099812,-0.1085623 4.360212,-0.1085623 5.460024,0 11.27681,1.1131341 20.96894,8.28163 25.34474,18.7454838 1.021222,2.44205 1.850305,5.674256 2.152854,8.392968 0.10828,0.972998 0.107267,5.061295 -0.0015,6.148287 -0.566663,5.661928 -2.774744,11.161111 -6.294066,15.675247 -4.929396,6.3228 -12.046005,10.412372 -20.019534,11.504261 -1.407909,0.192798 -5.636543,0.284282 -6.877735,0.148796 z m 4.694981,-0.903441 c 6.199657,-0.436891 11.815641,-2.586014 16.5148,-6.319876 5.322529,-4.22918 8.970804,-10.047042 10.452835,-16.669017 0.49372,-2.206027 0.562243,-2.877476 0.603549,-5.914112 0.04366,-3.20942 -0.0097,-3.963141 -0.429146,-6.05882 C 59.462486,19.192662 55.811729,13.242095 50.055084,8.7423229 44.184198,4.1532526 36.634696,1.9599311 29.199485,2.6832432 20.275763,3.5513605 12.301779,8.3711418 7.3382005,15.89704 6.4725034,17.209631 4.9440859,20.221258 4.419506,21.648099 3.5917237,23.89964 3.0249678,26.231663 2.7444226,28.540541 c -0.174444,1.435668 -0.1971965,5.140294 -0.040217,6.548262 0.8850223,7.937875 4.7673813,14.999909 10.9688964,19.952488 5.654427,4.515669 13.052791,6.857152 20.097812,6.360688 z"
     id="path24" />
  <path
     style="fill:none;fill-opacity:1;stroke:#000000;stroke-width:0.562903;stroke-linecap:square;stroke-opacity:1;paint-order:markers fill stroke"
     d="M 29.734878,62.590834 C 27.065305,62.415187 23.722167,61.637963 20.921493,60.541872 18.191741,59.473536 14.746083,57.444417 12.523669,55.596462 11.827793,55.017836 9.2979896,52.484978 8.5356258,51.603604 7.0665444,49.905188 5.7119517,47.844029 4.5839686,45.590734 3.2901849,43.006228 2.5053941,40.671248 1.8847737,37.559846 1.589918,36.081623 1.5474654,35.710138 1.4712993,33.941706 1.412151,32.568394 1.4130452,31.357305 1.4742488,29.946854 1.5542773,28.102582 1.5915278,27.778803 1.8935862,26.301996 3.132445,20.245037 5.8332172,15.072774 10.006757,10.76442 14.622728,5.9993435 20.2151,3.0163817 26.769627,1.8231342 c 2.12462,-0.3867859 2.562295,-0.4212947 5.312741,-0.4188867 2.750335,0.00241 3.42414,0.058516 5.477478,0.4561169 6.288552,1.2176911 11.843022,4.205579 16.313212,8.7752856 4.54066,4.641746 7.338728,10.221684 8.441485,16.834105 0.177668,1.065346 0.220649,1.64488 0.259618,3.500644 0.05367,2.555755 -0.04619,4.268323 -0.352751,6.049458 -0.884405,5.138495 -3.045079,9.955687 -6.312685,14.074035 -0.980697,1.236028 -3.473637,3.7551 -4.627763,4.676271 -2.578325,2.057905 -5.207484,3.589917 -8.161271,4.755577 -2.599228,1.025739 -5.560907,1.7415 -8.036683,1.942257 -1.113798,0.09032 -4.618844,0.170821 -5.34813,0.122837 z m 5.353925,-1.559955 c 6.478754,-0.759979 12.178111,-3.345323 16.721082,-7.585022 4.443555,-4.14692 7.391848,-9.268916 8.688392,-15.094129 0.505922,-2.273048 0.553344,-2.811987 0.566152,-6.434096 0.01078,-3.049763 -2.75e-4,-3.320605 -0.176555,-4.324324 C 59.730126,21.001243 57.033483,15.703346 52.592021,11.29505 48.301448,7.036517 42.810024,4.2130534 36.877966,3.2155312 35.084719,2.9139828 33.89074,2.816251 32,2.816251 c -4.660847,0 -8.94912,1.0174779 -13.147219,3.1194392 -2.810597,1.4072483 -5.038281,3.027368 -7.410627,5.3895018 -2.5583844,2.54737 -3.9676869,4.495087 -5.5727886,7.701835 -1.3639989,2.725062 -2.1523219,5.143994 -2.7111954,8.319176 -0.228048,1.295631 -0.2319837,1.372839 -0.2330344,4.571429 -8.958e-4,2.727236 0.022856,3.406767 0.1468281,4.200772 1.0315762,6.606928 3.886266,12.203286 8.5524883,16.766372 3.262458,3.190349 7.054957,5.483398 11.416639,6.902813 2.401559,0.781536 4.534996,1.186755 7.393915,1.404382 0.813893,0.06195 3.563822,-0.03323 4.653797,-0.161092 z"
     id="path25" />
  <path
     style="fill:none;fill-opacity:1;stroke:#000000;stroke-width:0.562903;stroke-linecap:square;stroke-opacity:1;paint-order:markers fill stroke"
     d="M 29.65251,62.795644 C 27.437738,62.675925 24.716283,62.098941 22.033462,61.180306 19.126317,60.18486 16.001526,58.505243 13.316787,56.494976 11.54997,55.172027 8.6685879,52.253513 7.2322654,50.332045 4.638012,46.861532 2.8311932,42.895674 1.8632115,38.547297 1.425616,36.581527 1.3242027,35.820554 1.2360572,33.841331 1.0362025,29.353786 1.4465025,26.167865 2.7158459,22.350984 5.1446302,15.047695 10.264959,8.8713867 17.104112,4.9953873 20.30166,3.1832192 24.661423,1.7823632 28.661932,1.2816896 c 1.105109,-0.1383072 5.901544,-0.1117365 7.061005,0.039116 9.260657,1.2048615 17.524467,6.5322679 22.530655,14.5247724 2.043904,3.263144 3.546244,7.287182 4.262908,11.418257 0.35142,2.025695 0.411108,6.021916 0.126256,8.453028 -0.572111,4.882765 -2.583036,10.010827 -5.566779,14.19585 -0.952821,1.336434 -1.94671,2.477967 -3.542893,4.069196 -1.612128,1.607124 -2.606373,2.421172 -4.482891,3.67041 -3.117672,2.075503 -6.144662,3.418675 -9.755299,4.32874 -2.682111,0.676029 -6.398102,0.989954 -9.642384,0.814585 z m 3.459459,-1.88502 c 0.9287,-0.04362 2.096268,-0.136487 2.594595,-0.20636 5.451586,-0.764398 10.303029,-2.81993 14.414414,-6.107319 1.137002,-0.909126 3.33079,-3.08838 4.266561,-4.238297 2.76864,-3.402224 4.631657,-7.111906 5.695627,-11.341265 0.634433,-2.521916 0.645424,-2.630168 0.683867,-6.735304 0.03285,-3.508354 0.02507,-3.769119 -0.141387,-4.736164 C 59.292931,19.803354 55.442153,13.403318 49.375945,8.8487813 45.442751,5.8957217 41.226498,4.1511952 36.001906,3.3151082 35.016132,3.1573557 34.554312,3.1358733 32.123552,3.1346995 29.149349,3.1332633 28.283577,3.2062498 26.19305,3.6346543 22.48828,4.3938604 18.529806,6.0829055 15.526384,8.1860249 12.778789,10.110003 9.6402096,13.284125 7.9662974,15.831725 6.4183973,18.187541 4.9429021,21.345119 4.2022915,23.886744 3.6048823,25.93693 3.2905383,27.706627 3.2000882,29.528958 3.088631,31.774526 3.1785,35.140095 3.3848405,36.447876 c 0.467681,2.964153 1.4209804,5.90764 2.7876776,8.607465 1.4734249,2.910659 3.0604991,5.082294 5.4790989,7.497192 4.748608,4.741341 10.860228,7.601153 17.753788,8.307537 1.403906,0.143859 1.649083,0.147203 3.706564,0.05055 z"
     id="path26" />
</svg>
