<?xml version="1.0" encoding="UTF-8" standalone="no"?>
<!-- Generator: Adobe Illustrator 14.0.0, SVG Export Plug-In . SVG Version: 6.00 Build 43363)  -->

<svg
   version="1.1"
   id="Layer_1"
   x="0px"
   y="0px"
   width="150"
   height="150"
   viewBox="0 0 150 150"
   enable-background="new 0 0 450 450"
   xml:space="preserve"
   sodipodi:docname="red_x.svg"
   inkscape:version="1.3.2 (091e20e, 2023-11-25, custom)"
   xmlns:inkscape="http://www.inkscape.org/namespaces/inkscape"
   xmlns:sodipodi="http://sodipodi.sourceforge.net/DTD/sodipodi-0.dtd"
   xmlns="http://www.w3.org/2000/svg"
   xmlns:svg="http://www.w3.org/2000/svg"><defs
   id="defs2" /><sodipodi:namedview
   id="namedview2"
   pagecolor="#ffffff"
   bordercolor="#000000"
   borderopacity="0.25"
   inkscape:showpageshadow="2"
   inkscape:pageopacity="0.0"
   inkscape:pagecheckerboard="0"
   inkscape:deskcolor="#d1d1d1"
   inkscape:zoom="1.7266667"
   inkscape:cx="224.71042"
   inkscape:cy="225"
   inkscape:window-width="1920"
   inkscape:window-height="991"
   inkscape:window-x="-9"
   inkscape:window-y="-9"
   inkscape:window-maximized="1"
   inkscape:current-layer="Layer_1" />
<circle
   fill="#cc3333"
   cx="75"
   cy="75"
   id="circle1"
   style="stroke-width:0.333333;fill:#c41b25;fill-opacity:1"
   r="75" />
<g
   id="g2"
   transform="scale(0.33333333)">
	<line
   fill="#ffffff"
   stroke="#ffffff"
   stroke-width="70"
   x1="106.742"
   y1="110.083"
   x2="343.258"
   y2="346.599"
   id="line1" />
	<line
   fill="#ffffff"
   stroke="#ffffff"
   stroke-width="70"
   x1="106.742"
   y1="346.599"
   x2="343.258"
   y2="110.084"
   id="line2" />
</g>
<path
   style="fill:none;stroke:#000000;stroke-width:3.95792;stroke-linecap:square;paint-order:markers fill stroke"
   d="M 35.760573,115.10946 27.800544,107.14943 43.288141,91.653867 58.775738,76.1583 43.285577,60.660165 27.795415,45.162031 35.9073,37.065672 44.019184,28.969312 59.512243,44.4544 75.005301,59.939488 90.49172,44.453067 l 15.48642,-15.48642 8.11322,8.097692 8.11322,8.097692 -15.49016,15.498134 -15.490161,15.498135 15.490161,15.498133 15.49016,15.498137 -8.11188,8.09636 -8.11189,8.09636 L 90.48638,107.86083 74.991951,92.374365 59.652583,107.72193 c -8.436653,8.44116 -15.472706,15.34757 -15.635674,15.34757 -0.162968,0 -3.878319,-3.58202 -8.256336,-7.96004 z"
   id="path1" /><path
   style="fill:none;stroke:#000000;stroke-width:3.95792;stroke-linecap:square;paint-order:markers fill stroke"
   d="M 37.520723,113.55665 31.315579,107.14286 46.78311,91.650577 62.250642,76.1583 46.759419,60.659103 31.268196,45.159907 37.644714,38.80316 44.021232,32.446414 59.225063,47.642126 c 8.362107,8.35764 15.460828,15.195711 15.774936,15.195711 0.314107,0 7.412828,-6.838071 15.774937,-15.195711 l 15.203824,-15.195712 6.37653,6.356746 6.37651,6.356747 -15.49122,15.499196 -15.491225,15.499197 15.491225,15.499198 15.49122,15.499192 -6.37651,6.35675 -6.37653,6.35675 -15.203824,-15.19572 C 82.412827,96.316834 75.314073,89.478763 74.999926,89.478763 c -0.314148,0 -7.479326,6.860629 -15.922618,15.245847 l -15.35144,15.24585 z"
   id="path2" /><path
   style="fill:none;stroke:#000000;stroke-width:3.95792;stroke-linecap:square;paint-order:markers fill stroke"
   d="M 63.996138,148.89478 C 46.770129,146.0073 32.914863,138.75292 21.078378,126.42376 10.812688,115.73078 3.9572838,102.20451 1.4346574,87.665124 0.27228289,80.965666 0.26312635,68.761105 1.4155569,62.206435 3.9396147,47.850363 10.897226,34.182735 21.084464,23.56856 43.934803,-0.23941465 78.664603,-6.405663 108.01158,8.1347199 c 21.2874,10.5471521 36.50896,30.8875751 40.55183,54.1890451 1.17983,6.800068 1.17983,18.552399 0,25.352467 -5.24296,30.218318 -28.61246,54.189088 -59.084647,60.604848 -6.159093,1.29676 -19.492008,1.61786 -25.482625,0.6137 z m 51.682792,-31.75499 c 5.17968,-5.17254 9.41759,-9.66639 9.41759,-9.98633 0,-0.31994 -6.83937,-7.424734 -15.1986,-15.788433 L 94.699313,76.1583 109.89792,60.951572 c 8.35923,-8.363697 15.1986,-15.468493 15.1986,-15.788434 0,-0.31994 -4.30077,-4.876554 -9.55726,-10.125809 L 105.98199,25.493231 90.488344,40.978908 74.994694,56.464585 59.507686,40.977574 44.020676,25.490565 34.462075,35.035996 c -5.25723,5.249988 -9.558601,9.807202 -9.558601,10.127142 0,0.319941 6.839372,7.424737 15.198605,15.788434 L 55.300683,76.1583 40.102079,91.365027 c -8.359233,8.363699 -15.198605,15.499143 -15.198605,15.856543 0,0.81991 17.779443,18.16453 18.619904,18.16453 1.192737,0 6.666211,-4.94195 19.035383,-17.18685 L 75.020993,95.862224 90.353888,111.20331 c 8.433093,8.4376 15.462172,15.34109 15.620182,15.34109 0.158,0 4.52519,-4.23208 9.70486,-9.40461 z"
   id="path3" /><path
   style="fill:none;stroke:#000000;stroke-width:3.95792;stroke-linecap:square;paint-order:markers fill stroke"
   d="M 67.181466,150.86456 C 59.495379,150.2185 48.40189,147.01113 41.078807,143.31769 31.211013,138.34083 20.252547,129.00799 13.505466,119.83471 6.5886549,110.43068 1.4063763,97.962583 -0.35613607,86.484966 -1.6826028,77.846912 -1.165275,65.130375 0.82969134,57.335906 7.6493802,30.69092 26.776794,10.343345 52.702702,2.1538546 c 8.070179,-2.54921208 13.191886,-3.2927241 22.586872,-3.278908 9.054556,0.013315 14.643272,0.87850466 22.876447,3.5415034 31.484439,10.183557 52.985449,39.637295 52.985449,72.583549 0,20.603878 -8.10864,39.702811 -23.11311,54.440151 -16.0485,15.76279 -37.667341,23.37361 -60.856894,21.42441 z m 15.083252,-3.46407 c 19.709132,-1.63361 39.175762,-12.64842 51.181092,-28.95979 9.13897,-12.4169 13.48943,-24.774771 14.06957,-39.965798 0.52279,-13.689353 -1.33555,-23.177631 -6.77665,-34.600048 -3.86589,-8.115598 -7.97931,-13.91466 -14.48391,-20.419256 C 115.93,13.130777 103.77081,6.55788 89.189187,3.4190094 82.332265,1.9429746 67.667732,1.9429746 60.81081,3.4190094 49.705855,5.8094837 40.202427,10.143659 31.169269,16.937461 17.154183,27.478151 7.8464344,42.074974 3.377824,60.521234 2.3245782,64.868993 2.338285,84.486421 3.3978544,89.189187 6.7394981,104.02066 13.154413,115.886 23.455598,126.28897 c 10.398196,10.50094 23.031823,17.36917 37.065636,20.15061 7.865027,1.55881 12.212201,1.75093 21.743484,0.96091 z"
   id="path4" /><path
   style="fill:none;stroke:#000000;stroke-width:3.95792;stroke-linecap:square;paint-order:markers fill stroke"
   d="M 61.606846,151.75255 C 54.930213,150.54061 46.133743,147.56078 40.092604,144.46453 25.267813,136.86642 11.433387,122.56798 4.6778229,107.86191 -1.527769,94.353068 -3.8041713,81.199417 -2.3741954,67.113508 0.49856953,38.815464 19.263143,13.856732 45.881377,2.9288374 56.029053,-1.2372054 60.475574,-2.1271058 72.683396,-2.435155 82.382303,-2.6798949 84.405439,-2.5649435 89.743243,-1.4658411 140.70359,9.027356 167.80611,64.808055 144.09689,110.40144 c -7.90986,15.21086 -22.31253,28.9167 -37.3972,35.58786 -5.05421,2.23521 -13.359366,4.69537 -19.205225,5.68898 -6.562071,1.11535 -19.940831,1.15373 -25.887619,0.0743 z m 27.058477,-7.00984 C 113.26836,140.07559 134.75586,121.2688 142.43334,97.682616 144.96782,89.896388 145.64897,84.94044 145.6305,74.420848 145.60795,61.5843 143.92013,54.20185 138.54665,43.436293 134.94693,36.224402 132.0453,32.127487 126.28042,26.117169 115.74975,15.138176 103.58921,8.2888678 89.095151,5.1729213 83.25601,3.9176188 66.743987,3.9176188 60.904846,5.1729213 38.794612,9.9262 20.24897,24.54128 10.644255,44.78129 5.3967885,55.839271 3.6238633,65.989377 4.4049086,80.501929 5.4008866,99.008135 13.584128,115.30182 28.64884,128.77412 c 9.348393,8.36023 20.95404,13.91843 34.188997,16.37388 6.74093,1.25063 18.032212,1.07345 25.827486,-0.40529 z"
   id="path5" /></svg>
