<?xml version="1.0" encoding="UTF-8" standalone="no"?>
<svg
   viewBox="0 0 64 64"
   enable-background="new 0 0 64 64"
   version="1.1"
   id="svg1"
   sodipodi:docname="yellow_check2.svg"
   inkscape:version="1.3.2 (091e20e, 2023-11-25, custom)"
   xmlns:inkscape="http://www.inkscape.org/namespaces/inkscape"
   xmlns:sodipodi="http://sodipodi.sourceforge.net/DTD/sodipodi-0.dtd"
   xmlns="http://www.w3.org/2000/svg"
   xmlns:svg="http://www.w3.org/2000/svg">
  <defs
     id="defs1" />
  <sodipodi:namedview
     id="namedview1"
     pagecolor="#ffffff"
     bordercolor="#000000"
     borderopacity="0.25"
     inkscape:showpageshadow="2"
     inkscape:pageopacity="0.0"
     inkscape:pagecheckerboard="0"
     inkscape:deskcolor="#d1d1d1"
     inkscape:zoom="12.140625"
     inkscape:cx="31.958816"
     inkscape:cy="32"
     inkscape:window-width="1920"
     inkscape:window-height="991"
     inkscape:window-x="-9"
     inkscape:window-y="-9"
     inkscape:window-maximized="1"
     inkscape:current-layer="svg1" />
  <path
     d="M32,2C15.431,2,2,15.432,2,32c0,16.568,13.432,30,30,30c16.568,0,30-13.432,30-30C62,15.432,48.568,2,32,2z M25.025,50  l-0.02-0.02L24.988,50L11,35.6l7.029-7.164l6.977,7.184l21-21.619L53,21.199L25.025,50z"
     fill="#fdd835"
     id="path1" />
  <path
     style="fill:none;stroke:#000000;stroke-width:0.562903;stroke-linecap:square;paint-order:markers fill stroke"
     d="m 18.079794,42.823504 c -3.805405,-3.91995 -6.93082,-7.160581 -6.945366,-7.201402 -0.0314,-0.08812 6.830211,-7.093207 6.917256,-7.061899 0.03291,0.01184 1.589008,1.596811 3.457998,3.522165 1.868989,1.925354 3.443268,3.500644 3.498397,3.500644 0.05513,0 4.798443,-4.837066 10.540698,-10.749035 5.742255,-5.911969 10.455403,-10.742364 10.473662,-10.734211 0.08461,0.03778 6.85787,7.0493 6.85787,7.099104 0,0.04547 -25.529849,26.383622 -27.37313,28.239792 l -0.508466,0.512022 z"
     id="path2" />
  <path
     style="fill:none;stroke:#000000;stroke-width:0.562903;stroke-linecap:square;paint-order:markers fill stroke"
     d="m 19.06811,43.354062 c -3.261721,-3.367303 -6.278307,-6.483491 -6.703527,-6.924861 l -0.773126,-0.802491 0.541467,-0.598425 c 0.297807,-0.329135 1.744249,-1.821593 3.214315,-3.316573 l 2.672848,-2.718147 2.575825,2.635779 c 3.465362,3.546021 4.085098,4.149067 4.326044,4.20954 0.168463,0.04228 0.282585,-0.02215 0.635264,-0.35867 0.881201,-0.840823 5.269191,-5.312368 12.629685,-12.870175 4.169314,-4.281081 7.648145,-7.839145 7.730734,-7.906807 0.139133,-0.113987 0.22037,-0.04992 1.105966,0.872237 0.525692,0.547393 1.965683,2.043662 3.19998,3.325043 l 2.244178,2.329782 -0.843921,0.908291 c -0.464155,0.499561 -1.848418,1.912706 -3.076137,3.140323 -1.22772,1.227617 -4.02515,4.085313 -6.21651,6.350436 -5.285912,5.463837 -14.273839,14.725527 -15.97351,16.460047 l -1.359175,1.387042 z"
     id="path3" />
  <path
     style="fill:none;stroke:#000000;stroke-width:0.562903;stroke-linecap:square;paint-order:markers fill stroke"
     d="m 18.539334,42.326021 c -3.537174,-3.652992 -6.431226,-6.676927 -6.431226,-6.719856 0,-0.08121 3.206868,-3.413681 4.93199,-5.125163 l 0.991445,-0.983605 3.277665,3.303603 c 2.289115,2.30723 3.346935,3.318817 3.507341,3.354051 0.139364,0.03061 0.34066,-0.0022 0.511926,-0.08349 0.284806,-0.135149 2.997176,-2.873796 12.435008,-12.555474 2.76009,-2.831403 5.75346,-5.889318 6.651935,-6.795367 l 1.63359,-1.647362 1.088752,1.114105 c 0.598814,0.612758 1.935546,1.99236 2.970514,3.065783 l 1.881764,1.951677 -0.179252,0.228941 c -0.09859,0.125917 -2.467235,2.564076 -5.263658,5.41813 -2.796424,2.854054 -6.860984,7.023938 -9.032357,9.266409 -5.604261,5.787766 -12.48266,12.849421 -12.515969,12.849421 -0.01553,0 -2.922294,-2.988812 -6.459468,-6.641803 z"
     id="path4" />
  <path
     style="fill:none;stroke:#000000;stroke-width:0.562903;stroke-linecap:square;paint-order:markers fill stroke"
     d="M 29.981982,61.896491 C 15.171267,60.83026 3.4194097,49.253205 2.1424387,34.471042 2.0373871,33.25497 2.0373871,30.74503 2.1424387,29.528958 2.7745572,22.211581 5.9268518,15.585665 11.214183,10.460746 14.952439,6.8373205 19.52966,4.2767189 24.586873,2.9797616 27.182334,2.3141374 29.130475,2.0768579 32,2.0768579 c 3.567246,0 6.419962,0.4648019 9.67825,1.576907 11.287351,3.8525515 19.192352,14.0328861 20.187948,25.9987451 0.119297,1.433798 0.04913,4.741803 -0.128415,6.054054 -0.936576,6.922349 -3.938832,12.939495 -8.844404,17.726029 -4.88551,4.766957 -11.176055,7.702928 -17.95858,8.381767 -1.25293,0.1254 -3.7716,0.167166 -4.952817,0.08213 z M 25.712789,49.718738 c 0.332097,-0.35714 3.070035,-3.183395 6.084306,-6.280567 5.589969,-5.743707 14.278843,-14.708789 17.991011,-18.56292 1.134431,-1.177814 2.375465,-2.466218 2.757855,-2.863119 l 0.695254,-0.721639 -0.159861,-0.278386 c -0.140972,-0.245492 -4.826127,-5.155694 -6.368985,-6.674913 -0.538389,-0.53014 -0.590951,-0.562163 -0.727427,-0.443181 -0.08091,0.07054 -0.195964,0.110621 -0.255681,0.08908 -0.06942,-0.02505 -0.09913,0.01526 -0.08237,0.111754 0.01678,0.0966 -0.02389,0.151629 -0.112971,0.15288 -0.07655,0.0011 -1.854009,1.762572 -3.949913,3.914438 -6.975876,7.16214 -16.027457,16.428868 -16.316535,16.70436 l -0.285335,0.271928 -3.360815,-3.422507 c -2.812062,-2.863682 -3.397791,-3.422507 -3.587283,-3.422507 -0.188996,0 -0.754548,0.53496 -3.417824,3.232948 -3.434555,3.479319 -3.834981,3.922117 -3.770338,4.169313 0.0462,0.176665 0.929007,1.100848 8.261187,8.648373 2.832683,2.91588 5.292214,5.464143 5.465624,5.662806 0.173408,0.198664 0.365013,0.361206 0.425787,0.361206 0.06077,0 0.382215,-0.292205 0.714312,-0.649344 z"
     id="path5" />
  <path
     style="fill:none;stroke:#000000;stroke-width:0.562903;stroke-linecap:square;paint-order:markers fill stroke"
     d=""
     id="path6" />
  <path
     style="fill:none;stroke:#000000;stroke-width:0.562903;stroke-linecap:square;paint-order:markers fill stroke"
     d="M 28.664093,62.014653 C 18.221587,60.753506 9.3198442,54.428247 4.8194267,45.071493 2.9174502,41.11712 1.9739812,37.249584 1.8416714,32.864865 1.6498542,26.508079 3.421895,20.419497 7.0077822,15.114543 8.9015955,12.31284 11.527355,9.5976753 14.309623,7.5640793 18.563608,4.4547862 24.055468,2.3803174 29.199485,1.9396544 c 1.258229,-0.1077864 4.246245,-0.1094971 5.477478,-0.00314 2.111392,0.1823946 4.061609,0.5585492 6.044303,1.1658149 11.515832,3.527104 19.722299,13.3163857 21.256092,25.3558387 0.299452,2.350542 0.228689,5.991012 -0.161188,8.292466 -1.094692,6.461992 -3.953502,12.025996 -8.520743,16.583626 -3.91952,3.911272 -8.623805,6.586084 -13.974156,7.945573 -1.310696,0.33304 -3.2179,0.663534 -4.520756,0.783391 -1.288855,0.118569 -4.99539,0.08923 -6.136422,-0.04857 z m 6.177606,-0.44838 c 3.303656,-0.285135 6.779975,-1.248222 9.92877,-2.750688 C 54.458265,54.192996 60.998027,44.575563 61.620732,34.035437 61.85857,30.00971 61.421202,26.442644 60.250582,22.860831 58.288854,16.858422 54.634232,11.794313 49.533129,8.0099533 46.982647,6.1178255 43.469776,4.3896734 40.308659,3.471989 37.448775,2.6417536 35.266843,2.3480533 31.958816,2.3480533 c -2.869503,0 -4.528392,0.186486 -6.960103,0.7824284 C 18.051493,4.8330454 12.007364,8.9233576 7.8195918,14.756302 5.8311672,17.525883 4.315914,20.671024 3.420766,23.886744 2.6362841,26.704908 2.308006,29.09842 2.308006,32 c 0,1.842382 0.098128,3.084798 0.3773224,4.777349 0.8587288,5.20584 2.9575174,9.85243 6.3619375,14.084942 0.9080436,1.128916 3.0978431,3.292966 4.3153101,4.264569 4.353203,3.47408 9.526144,5.67308 14.972044,6.364563 1.709493,0.21706 4.488959,0.249032 6.507079,0.07485 z"
     id="path7" />
  <path
     style="fill:none;stroke:#000000;stroke-width:0.562903;stroke-linecap:square;paint-order:markers fill stroke"
     d="M 29.405405,62.310175 C 24.713546,61.988212 19.268847,60.051176 15.000563,57.185427 11.45717,54.806374 8.1939653,51.387934 6.0392874,47.797851 3.6191914,43.765534 2.2039569,39.546475 1.7209264,34.924067 1.5708209,33.487618 1.5953866,30.079587 1.7660494,28.664093 2.5038868,22.544399 4.8170807,17.149924 8.6711264,12.561133 9.7129192,11.32073 11.745351,9.3128663 12.931789,8.3519734 17.294612,4.818535 22.503893,2.5856543 28.211068,1.8027378 c 1.543371,-0.2117213 5.863475,-0.2132753 7.495496,-0.0027 3.549198,0.457952 6.784211,1.4497254 9.950109,3.0504526 8.48088,4.2880646 14.40018,12.1590916 16.236212,21.5896596 0.695964,3.574736 0.66474,8.115111 -0.07948,11.557267 -0.618961,2.862819 -1.423008,5.180597 -2.639288,7.608105 -1.501962,2.997686 -3.17221,5.278742 -5.752202,7.855776 -1.742084,1.740087 -2.79829,2.620373 -4.577646,3.815199 -3.861713,2.593116 -7.972154,4.153741 -12.849421,4.87858 -1.282332,0.190575 -4.849043,0.274524 -6.589447,0.155094 z m 6.552661,-1.101895 c 8.483827,-1.214784 15.850913,-5.842054 20.602726,-12.940584 2.542264,-3.797776 4.090554,-8.012164 4.690387,-12.767052 0.205321,-1.627585 0.206943,-5.302989 0.0031,-6.960103 C 60.14273,19.505852 54.971672,11.443719 47.340033,6.8470571 43.350832,4.4442951 38.940975,2.9979588 34.635779,2.6803394 33.158533,2.5713544 30.634409,2.5707914 29.273223,2.6791431 22.269692,3.2366309 15.156688,6.750252 10.351891,12.02574 6.0095331,16.793489 3.4896722,22.303709 2.7053936,28.746461 c -0.1689737,1.388098 -0.144755,5.575452 0.039541,6.836551 0.8685835,5.943527 2.8755445,10.635332 6.4477633,15.073359 0.6482526,0.805372 3.0182761,3.191588 3.9450111,3.971966 4.153776,3.497778 9.93077,6.009259 15.196911,6.60668 0.430374,0.04883 0.912227,0.10333 1.070785,0.121124 0.772348,0.08668 5.689609,-0.02428 6.552661,-0.147861 z"
     id="path8" />
  <path
     style="fill:none;stroke:#000000;stroke-width:0.562903;stroke-linecap:square;paint-order:markers fill stroke"
     d="M 24.386074,50.14157 C 22.411902,48.120948 11.834171,37.160694 11.300033,36.582297 c -0.848796,-0.919127 -0.85325,-0.971712 -0.151596,-1.789805 0.875067,-1.020282 6.336441,-6.478908 6.622477,-6.619145 0.245926,-0.120572 0.289466,-0.120192 0.535392,0.0047 0.147233,0.07476 1.714193,1.599401 3.482132,3.388092 l 3.214435,3.252166 1.476296,-1.512104 C 44.539487,14.8078 45.292259,14.043758 45.457467,14.043758 c 0.0478,0 0.067,-0.05189 0.04267,-0.115301 -0.05601,-0.145953 0.471687,-0.332453 0.745917,-0.263626 0.289771,0.07273 6.563443,6.565522 7.063765,7.310483 l 0.232231,0.345786 -0.807041,0.829798 c -0.443874,0.456388 -2.954851,3.053735 -5.57995,5.771882 -6.25144,6.473024 -20.475235,21.145053 -21.340372,22.01287 -0.37259,0.373745 -0.742337,0.679537 -0.821659,0.679537 -0.07932,0 -0.35245,-0.213128 -0.606951,-0.473617 z m 1.938898,-2.841699 c 0.721537,-0.736164 3.849404,-3.951608 6.950814,-7.145431 3.101411,-3.193822 8.405689,-8.642471 11.787285,-12.108108 3.381596,-3.465637 6.249767,-6.422346 6.373713,-6.570465 l 0.225359,-0.269308 -1.363517,-1.419238 c -0.749934,-0.780581 -2.012039,-2.08642 -2.804679,-2.901864 l -1.441163,-1.482626 -1.511027,1.52381 c -0.831065,0.838095 -3.842265,3.914543 -6.691557,6.836551 -6.710275,6.881528 -12.134056,12.335683 -12.414964,12.48449 -0.122332,0.0648 -0.360419,0.117826 -0.529082,0.117826 -0.293751,0 -0.444857,-0.137794 -3.589485,-3.273239 l -3.282825,-3.273239 -1.830886,1.85239 c -1.006988,1.018814 -2.23454,2.269378 -2.727894,2.77903 -0.493354,0.509653 -0.931192,0.926641 -0.972974,0.926641 -0.250398,0 0.167296,0.519529 1.70188,2.116802 0.948863,0.987625 3.330331,3.451999 5.29215,5.476387 1.961818,2.024387 3.566943,3.710294 3.566943,3.746458 0,0.0758 1.825353,1.921615 1.900309,1.921615 0.02734,0 0.640063,-0.602317 1.3616,-1.338482 z"
     id="path9" />
  <path
     style="fill:none;stroke:#000000;stroke-width:0.562903;stroke-linecap:square;paint-order:markers fill stroke"
     d="M 30.146718,62.588854 C 24.702748,62.359787 18.262314,59.985221 13.673102,56.515087 11.805332,55.102773 9.6276658,53.003473 8.1907735,51.230049 4.4524944,46.616235 2.0704062,40.822617 1.4890342,34.930353 1.3778095,33.803079 1.3748028,30.456207 1.483886,29.199485 1.9071162,24.323547 3.7344876,19.192721 6.5271444,15.039213 9.6799292,10.350086 14.321144,6.3936137 19.33106,4.1243256 c 2.945245,-1.3340762 6.399954,-2.2981943 9.331143,-2.604076 1.041792,-0.1087153 5.588552,-0.103849 6.670101,0.00714 4.255777,0.4367254 8.733064,1.977228 12.589509,4.3316796 8.313415,5.0755378 13.70432,13.7615398 14.602436,23.5279228 0.12701,1.381151 0.05246,5.280589 -0.125539,6.566677 -0.809607,5.849537 -3.276161,11.41057 -6.945689,15.659584 -0.965418,1.117875 -3.073394,3.221403 -4.030129,4.021624 -2.24742,1.879764 -5.452275,3.789478 -8.097281,4.825022 -2.608997,1.021447 -5.812371,1.809343 -8.173436,2.010324 -1.029274,0.08761 -4.044326,0.159073 -5.005457,0.118632 z m 3.767951,-1.514642 c 1.495141,-0.06179 2.281771,-0.134722 3.129987,-0.290203 7.782236,-1.426513 14.358999,-5.629375 18.941442,-12.104472 3.068182,-4.335414 4.897589,-9.665165 5.130198,-14.9462 C 61.303068,29.492966 60.850391,26.109364 59.618168,22.535348 55.931912,11.843502 46.705164,4.3784812 35.459459,2.9894302 34.149943,2.8276809 29.452397,2.8553464 28.138303,3.0325473 21.32244,3.951641 14.690849,7.4461082 10.325174,12.419043 7.1931602,15.986716 5.2013559,19.547675 3.9563813,23.805209 c -0.9359247,3.200653 -1.2592156,6.184519 -1.0797477,9.965705 0.2668123,5.62143 2.3224703,11.198073 5.8690374,15.921679 1.1090408,1.47711 3.955707,4.346194 5.384454,5.426857 4.447573,3.364013 9.656267,5.426412 15.110544,5.983065 0.620783,0.06336 2.771099,0.05034 4.674,-0.0283 z"
     id="path10" />
  <path
     style="fill:none;stroke:#000000;stroke-width:0.562903;stroke-linecap:square;paint-order:markers fill stroke"
     d="M 28.349938,62.67796 C 24.768571,62.217714 21.059987,61.035661 17.669804,59.273833 14.724799,57.743358 12.623787,56.176121 10.0473,53.587877 6.6977892,50.223081 4.3091911,46.346383 2.7346468,41.719434 1.4104003,37.828008 0.91473987,33.768115 1.2362913,29.446589 1.5706642,24.95275 3.2514355,19.85991 5.7132324,15.881185 8.630535,11.166278 13.171106,6.9843182 18.120978,4.453397 20.862956,3.0513954 24.437753,1.9108458 27.71686,1.3918035 c 1.101727,-0.17439 5.501521,-0.2516299 7.140787,-0.125359 5.247825,0.4042346 10.926828,2.5821065 15.428067,5.9165939 6.849053,5.0737306 11.257782,12.6200096 12.357297,21.1515816 0.281863,2.187085 0.221195,6.343738 -0.122128,8.36762 -0.928083,5.471025 -3.111378,10.400898 -6.415618,14.486439 -0.751906,0.929698 -2.960966,3.215556 -4.030634,4.170759 -1.946842,1.738511 -4.862935,3.60786 -7.530816,4.827596 -2.735917,1.250843 -6.822264,2.318415 -9.702116,2.534712 -1.550092,0.116423 -5.449784,0.09012 -6.491761,-0.04379 z m 7.098812,-1.935946 c 2.267435,-0.193448 5.406293,-1.025001 7.917009,-2.097393 2.356724,-1.006618 4.385323,-2.207795 6.549299,-3.877981 1.169106,-0.902332 3.757691,-3.469143 4.726603,-4.686846 3.010295,-3.783257 4.963615,-8.051272 5.805334,-12.684685 C 61.105116,33.77235 61.041935,29.218819 60.28585,25.78121 59.470678,22.074954 57.771724,18.239062 55.591488,15.182295 51.086335,8.8659126 44.521942,4.7784477 36.693044,3.41476 34.57403,3.0456565 29.362939,3.0437019 27.248063,3.4112175 20.76001,4.5386878 14.619373,7.893081 10.539141,12.538657 6.335039,17.325265 3.9722244,22.495768 3.2454255,28.499356 c -0.167655,1.384884 -0.1925644,5.01759 -0.044337,6.465895 0.3712239,3.627155 1.3354453,6.88711 3.0217602,10.21633 1.2230974,2.414708 2.5837277,4.361906 4.4299193,6.339655 2.769412,2.966756 4.981426,4.64365 8.350187,6.330148 3.107053,1.555479 6.009246,2.442608 9.619954,2.940581 0.934877,0.128934 5.085066,0.09856 6.825841,-0.04995 z"
     id="path12" />
</svg>
